<?xml version="1.0" standalone="no"?>
<!DOCTYPE svg PUBLIC "-//W3C//DTD SVG 20010904//EN"
 "http://www.w3.org/TR/2001/REC-SVG-20010904/DTD/svg10.dtd">
<svg version="1.0" xmlns="http://www.w3.org/2000/svg"
 width="512.000000pt" height="512.000000pt" viewBox="0 0 512.000000 512.000000"
 preserveAspectRatio="xMidYMid meet">
<metadata>
Created by potrace 1.14, written by Peter Selinger 2001-2017
</metadata>
<g transform="translate(0.000000,512.000000) scale(0.100000,-0.100000)"
fill="#000000" stroke="none">
<path d="M2379 5116 c-2 -2 -35 -7 -74 -11 -72 -6 -121 -13 -165 -21 -14 -2
-41 -7 -60 -10 -68 -10 -303 -75 -383 -105 -420 -157 -729 -365 -1037 -695
-85 -91 -300 -385 -300 -409 0 -5 -6 -16 -14 -24 -18 -20 -115 -215 -151 -301
-50 -123 -124 -359 -140 -450 -45 -257 -50 -310 -50 -520 0 -152 10 -332 20
-362 2 -7 6 -31 9 -53 13 -103 52 -263 96 -395 118 -357 306 -674 560 -944
166 -176 322 -305 520 -428 100 -62 309 -173 315 -166 1 2 5 86 8 188 4 102 8
196 11 210 3 14 7 43 11 65 6 45 65 306 100 445 13 52 26 109 29 125 2 17 17
77 31 135 15 58 28 112 30 120 2 8 13 56 24 105 11 50 36 155 56 235 19 80 38
156 40 170 3 14 13 59 24 100 17 67 17 79 4 110 -78 186 -89 450 -26 645 84
264 302 423 524 383 131 -24 220 -112 259 -256 17 -66 14 -202 -7 -297 -2 -11
-6 -31 -9 -45 -3 -14 -8 -34 -11 -45 -4 -11 -8 -25 -9 -32 -2 -13 -27 -97 -79
-268 -107 -348 -120 -416 -102 -520 19 -104 109 -219 210 -269 65 -31 92 -37
192 -41 207 -8 392 102 547 326 48 70 138 246 138 271 0 8 4 18 9 24 30 33
103 363 116 529 7 94 7 299 0 355 -19 141 -80 304 -159 423 -119 179 -357 331
-587 376 -30 6 -65 13 -79 17 -53 13 -365 13 -445 0 -396 -67 -683 -256 -875
-576 -73 -121 -116 -241 -156 -430 -5 -19 -8 -107 -8 -195 -1 -228 27 -324
143 -485 69 -97 71 -107 40 -226 -11 -43 -22 -88 -24 -98 -23 -106 -73 -143
-149 -111 -258 108 -435 365 -496 720 -13 74 -17 143 -15 265 3 178 6 204 36
322 69 276 216 535 414 733 158 157 238 216 430 317 44 23 82 42 85 43 3 0 25
10 50 21 41 19 199 70 290 94 33 9 104 23 180 35 121 19 392 26 530 13 687
-64 1243 -521 1390 -1143 28 -118 34 -174 34 -335 1 -264 -33 -483 -110 -720
-29 -87 -28 -86 -83 -205 -235 -505 -664 -801 -1166 -805 -109 -1 -173 9 -270
41 -147 49 -291 147 -346 236 -28 45 -25 53 -85 -187 -140 -563 -175 -669
-288 -867 -80 -142 -87 -155 -84 -158 5 -6 171 -46 226 -56 28 -5 78 -13 109
-19 187 -32 522 -35 728 -5 76 10 108 15 129 20 12 3 32 7 46 9 230 38 608
191 850 345 384 244 701 592 910 1001 247 486 328 999 246 1570 -4 29 -17 96
-41 204 -3 10 -12 44 -21 75 -9 31 -18 63 -19 71 -4 17 -52 148 -85 230 -37
93 -153 310 -222 415 -409 618 -1083 1043 -1793 1130 -28 4 -64 9 -80 11 -38
6 -440 15 -446 10z"/>
</g>
</svg>
